#!OML:ASF F:\VICON\USERDATA\INSTALL\rory3\rory3.ASF
:FULLY-SPECIFIED
:DEGREES
79
root 0.670631754854103 17.675999394123867 25.88801892525808 -2.1277890974468927 0.7548614273560356 0.047377722157201596
lfemur 11.261227790709984 -3.015807406174632 -24.505793857443212
ltibia 16.81116554725058
lfoot -4.803728734074239 -5.104148627760793
ltoes -8.80332148763031
rfemur -23.97587172429493 2.33842918960175 22.771952000092515
rtibia 19.98137757553262
rfoot -4.807292479922788 -9.99081588478751
rtoes -3.2484608187596242
lowerback 11.04509984835769 -0.949350051881827 -2.6508572992507586
upperback 0.08663807345733099 -1.6117613497585122 1.9203558469463466
thorax -5.734941217502419 -0.5755132306608558 4.40106463492747
lowerneck -15.93366345275072 -3.2556034853226885 -2.8150617696771567
upperneck 21.14235977381595 -4.515095146232298 2.0036767083722005
head 9.460166685567623 -2.034533929166714 0.5900353744834734
lclavicle 2.9485635639689743e-16 4.288720610008164e-17
lhumerus -31.86675844219485 2.9294980091093183 80.50896217946804
lradius 28.667087977683
lwrist 7.009901174987738
lhand -29.33440310693196 19.64964287544793
lfingers 7.125020000000001
lthumb -2.715914758121399 49.465184777057715
rclavicle 2.9722549837693345e-16 5.396461831361607e-17
rhumerus -34.97068694401878 -22.103225496161205 -73.93582998991702
rradius 23.914698732785634
rwrist 6.591214470243742
rhand -17.792864671009447 22.800669224921766
rfingers 7.125020000000001
rthumb 8.617289597509627 -6.889461324927002
80
root 0.6175083784754359 17.705738164981586 26.73000366226414 -2.4340383071092937 0.7240635869765039 -0.7856309830150909
lfemur 11.025104631220898 -3.8144862394417527 -23.723446328501968
ltibia 20.473554010161045
lfoot -3.6350780222934147 -5.072743397379759
ltoes -8.659758002779668
rfemur -23.621860235949725 2.2943114994134444 23.926272055320613
rtibia 24.24656269408839
rfoot -4.612799340655862 -8.955296449151529
rtoes -3.5633214039532817
lowerback 11.041119795257334 -1.0042318789587512 -2.347306188599588
upperback 0.07860009416320302 -1.4968075509916101 2.117865252584618
thorax -5.718757819306826 -0.640283644729215 4.468529192451877
lowerneck -15.907758627834879 -3.2841265730417333 -2.837419638458292
upperneck 21.126773072200006 -4.443661946385313 1.9456884927231242
head 9.45613768616315 -2.025735389471177 0.5844241985824442
lclavicle 2.948563810658459e-16 4.2887231859616126e-17
lhumerus -32.162643211107245 2.999585213276137 80.56384716721458
lradius 29.0774641518013
lwrist 7.00324978789923
lhand -29.33472769155976 19.758200633308242
lfingers 7.125020000000001
lthumb -2.7216044213306487 49.55976625428677
rclavicle 2.972255031843529e-16 5.396462200695558e-17
rhumerus -35.3181101495628 -22.632637043554254 -73.3515842692694
rradius 23.00666839682263
rwrist 7.78906312248076
rhand -17.817806580046913 22.80679481876243
rfingers 7.125020000000001
rthumb 8.618635132053825 -6.908893109355231
81
root 0.5694951363412906 17.760538475103328 27.686153701656878 -2.718454749907442 0.6875139642783171 -1.7146258789915356
lfemur 9.591392111943382 -4.040877897627232 -22.430135408083977
ltibia 26.809074253383884
lfoot -3.58018504918598 -5.5859824273207455
ltoes -8.255988934390848
rfemur -22.27751693899434 2.3777094580684053 25.475272897544173
rtibia 27.741072501707514
rfoot -4.321687352502689 -8.168390821613865
rtoes -3.0962677746205944
lowerback 11.059555706306424 -1.0329150658862951 -1.8697510475470362
upperback 0.06472888681604419 -1.330977921790859 2.301239169804167
thorax -5.73285297343299 -0.6788111156971424 4.419148857163114
lowerneck -15.887376541383585 -3.3101441211259663 -2.8578560692576502
upperneck 21.12382135760772 -4.403620681128932 1.8909535532079877
head 9.456170716122445 -2.0140906557447686 0.5803180285614287
lclavicle 2.948563847459876e-16 4.2887244182067194e-17
lhumerus -32.45473445157398 3.1449471865487597 80.61403523472973
lradius 29.360786842270127
lwrist 7.021990349437655
lhand -29.32782963872003 19.88528587204793
lfingers 7.125020000000001
lthumb -2.7193232404432215 49.67830301769418
rclavicle 2.9722550384243904e-16 5.3964622524945254e-17
rhumerus -35.33083534947188 -22.776468065375745 -73.16711922222538
rradius 22.37478959729278
rwrist 8.84303360158115
rhand -17.846908111639763 22.81332262865378
rfingers 7.125020000000001
rthumb 8.610344410950377 -6.914531723383279
82
root 0.5263129728080617 17.82590936764638 28.59779359192826 -2.9399827133491945 0.6317945096911586 -2.6348186838902974
lfemur 7.056074374245861 -3.572861664951284 -20.726522167204234
ltibia 35.0864721696879
lfoot -3.047551606851591 -6.1281258913970085
ltoes -8.014730534836616
rfemur -20.738454876414654 2.522966780615457 26.822259036767218
rtibia 30.25059763759856
rfoot -4.439201206961522 -7.910458073746648
rtoes -1.5856605400007027
lowerback 11.087178372199103 -1.0279193413035286 -1.257700576814037
upperback 0.05153742786331725 -1.1275147540709065 2.4459682295487593
thorax -5.7735695293000155 -0.6872333795644204 4.2630308139946695
lowerneck -15.876582004998387 -3.3286686512225 -2.8685912805656733
upperneck 21.161795621320863 -4.371182086175343 1.8852033460614661
head 9.466853192413744 -1.9964929608790127 0.5836138009309664
lclavicle 2.948564092689027e-16 4.288726295908038e-17
lhumerus -32.86938582814176 3.1103023483531036 80.5826700210225
lradius 29.511202291587956
lwrist 7.120657641919234
lhand -29.319477880956196 20.009390284579204
lfingers 7.125020000000001
lthumb -2.7082218233598914 49.81951780341494
rclavicle 2.972255010188229e-16 5.396462048612378e-17
rhumerus -35.16438732940263 -22.695054673321387 -73.40993118539036
rradius 22.159980902893818
rwrist 9.52229387037836
rhand -17.87757203666282 22.817423238934328
rfingers 7.125020000000001
rthumb 8.593964778400073 -6.9049374785849364
